<svg xmlns="http://www.w3.org/2000/svg" id="Layer_1" data-name="Layer 1" viewBox="22.95 106.94 279.58 82.81">
  <defs>
    <style>
      .cls-1, .cls-2 {
        fill: none;
      }

      .cls-3, .cls-4, .cls-5, .cls-6 {
        fill: #1F2127;
      }

      .cls-3, .cls-2 {
        stroke: #1F2127;
        stroke-miterlimit: 10;
      }

      .cls-4 {
        font-size: 9.85px;
      }

      .cls-4, .cls-6 {
        font-family: ElanITCStd-Bold, 'Elan ITC Std';
        font-weight: 700;
      }

      .cls-7 {
        fill: #fff;
        font-family: Papyrus, Papyrus;
        font-size: .96px;
      }

      .cls-8 {
        letter-spacing: -.09em;
      }

      .cls-2 {
        stroke-dasharray: 5;
        stroke-width: 2px;
      }

      .cls-9 {
        letter-spacing: -.02em;
      }

      .cls-10 {
        letter-spacing: -.02em;
      }

      .cls-6 {
        font-size: 9.61px;
      }

      .cls-11 {
        letter-spacing: -.03em;
      }

      .cls-12 {
        letter-spacing: -.03em;
      }

      .cls-13 {
        letter-spacing: -.03em;
      }

      .cls-14 {
        letter-spacing: .02em;
      }
    </style>
  </defs>
  <path class="cls-5" d="M94.51,129.57c-.14-1.43-.88-4.03-1.72-5.63-.86-1.61-2.54-2.63-4.36-2.69-5.01-.17-10.03-.22-15.04-.2.02.36,0,.72.02,1.07,1.37-.21,2.59,1.12,2.79,2.49s-.32,2.74-.83,4.03c-5.42,13.69-10.54,27.5-15.35,41.42,3.72-.33,7.38-.35,11.11-.17,1.81-4.19,3.71-8.45,5.52-12.64,3.73.07,7.53.03,11.26.1.78,8.99,1.62,18.08,2.97,27.01,5.05-.17,9.92-1.1,14.47-3.3.24-.49-10.84-51.48-10.84-51.48ZM78.93,144.07c1.79-4.01,3.57-8.03,5.36-12.04.77,3.75,1.5,7.64,2.28,11.39-2.52.5-5.07.79-7.64.65Z"/>
  <g>
    <path class="cls-1" d="M57.94,127.76c-.38-.33-.7-.51-1.12-.65-.74-.25-4.67-1.01-6.16-.99-1.68,4.13-3.65,9.01-5.33,13.14,2.66-.01,5.45.14,8.1-.11,1.33-.13,2.7-.31,3.85-1,1.2-.73,2.03-1.99,2.44-3.33.19-.63.29-1.29.34-1.96.22-3.47-2.71-5.6-2.12-5.1Z"/>
    <path class="cls-5" d="M69.63,133.26c-.78-15.21-19.66-13.55-33.4-12.44,0,.38.03.71.03,1.09,2.97-.42,3.16,3.39,2.15,5.35-4.9,14.22-10.27,28.46-15.46,42.57,3.83-.67,7.59-.8,11.47-.56,2.5-4.84,5.51-14.82,7.86-19.75,7.49-1.59,9.11-1.97,9.11-1.97,3.2-.74,18.72-4.68,18.23-14.29ZM60.06,132.85c-.04.67-.14,1.33-.34,1.96-.42,1.35-1.24,2.6-2.44,3.33-1.14.7-2.52.87-3.85,1-2.65.26-5.44.1-8.1.11,1.68-4.13,3.65-9.01,5.33-13.14,1.49-.02,5.42.74,6.16.99.41.14.73.33,1.12.65-.59-.5,2.34,1.63,2.12,5.1Z"/>
  </g>
  <path class="cls-5" d="M179.62,165.9c-3.13-10.26-4.18-12.29-6.9-22.66-1.55-5.93-3.4-12.48-4.68-18.48-5.99-.31-15.95-.24-21.92.25.49,9.85.25,17.74.25,29.81,0,2.96-.25,8.38-.1,15.49,14.6.19,20.48.52,35.08.03-.49-.99-1.64-4.15-1.72-4.43ZM173.81,149.96c-.05-.01-.1-.02-.15-.03-.07-.06-.14-.12-.21-.19-.05-.13-.34-.31-.46-.28-.02,0-.05.05-.06.07,0,.03.01.07.03.1.14.27.29.54.43.82.02.03.04.06.04.09.02.07.01.11-.08.1-.1-.01-.2-.01-.29-.02,0,0-.01,0-.02-.02-.03-.04-.05-.09-.08-.1-.09-.02-.19-.03-.29-.04,0,0-.01,0-.02-.02-.03-.04-.06-.06-.08-.09,0,0,0,0,0-.01-.02-.03-.04-.05-.07-.07,0,0,0,0,0-.01-.02-.03-.04-.05-.07-.07,0,0,0,0,0-.01-.03-.04-.05-.06-.08-.09,0,0,0,0,0,0-.06-.06-.1-.13-.17-.17-.26-.14-.53-.27-.79-.4-.09-.04-.19-.07-.29-.11,0,0,0,0,0,0-.03-.03-.05-.06-.08-.08,0,0,0,0,0-.01-.02-.04-.03-.08-.06-.11-.09-.08-.2-.05-.3-.03-.52.09-1.05.04-1.57.04-.32,0-.64-.02-.97-.02-.11,0-.21.03-.32.02-.44-.04-.88-.09-1.32-.12-.32-.02-.64-.02-.96-.03-.08,0-.12.02-.11.12.01.1-.02.21-.03.32-.06-.02-.09-.03-.12-.04,0,0,0,0,0,0-.03-.03-.05-.05-.08-.07-.02.03-.06.05-.06.08,0,.11,0,.22.02.33.02.08.1.14.16.21.1.09.2.19.3.29.03.1.05.19.07.29-.14-.06-.16,0-.16.09,0,.17-.05.33-.16.47-.08.1-.15.2-.22.3-.02.02-.04.04-.05.06,0-.01,0-.03,0-.04l-.22-.06c.03-.05.07-.11.11-.17.13-.17.1-.33-.07-.39-.02-.02-.04-.03-.07-.06-.01-.03-.01-.07-.03-.07-.05-.03-.11-.05-.17-.07-.01.04-.04.09-.03.13.03.19-.11.3-.21.44-.09-.09-.17-.06-.24,0-.06.05-.11.12-.17.19-.02-.03-.04-.05-.06-.07-.09-.1-.15-.09-.21.02-.03.05-.06.1-.08.15-.07-.05-.13-.1-.19-.15-.02-.02-.04-.03-.07-.06-.04-.04-.07-.07-.1-.1-.01,0-.03-.02-.04-.04-.03-.03-.05-.04-.07-.06-.01.02-.04.05-.04.07,0,.04.02.07.04.11.02.04.04.09.06.14-.06-.01-.09-.02-.12-.02,0,0,0,0-.02,0-.04-.09-.12-.09-.19-.1-.03-.02-.06-.05-.09-.08-.06-.17-.11-.32-.16-.48,0-.02-.04-.02-.06-.03,0,0,0,0,0,0-.04-.11-.1-.14-.21-.11-.1.03-.12.1-.12.18,0,.06,0,.12.01.18-.02,0-.04,0-.05.01-.04-.09-.08-.18-.11-.27-.03-.1-.04-.21-.06-.31.02-.04.04-.08.06-.13-.03-.14-.13-.08-.2-.07-.09.02-.17.05-.25.08,0-.02.01-.03.03-.06,0-.02.01-.04.01-.05,0-.02.01-.05.02-.09-.03-.04-.06-.08-.09-.08-.14-.01-.28.02-.39.11-.03.02-.07.05-.11.07-.02-.05-.03-.08-.04-.11.02-.04.04-.08.06-.13-.05-.05-.09-.08-.16-.13,0-.03.04-.07.04-.12,0-.07,0-.16-.03-.21-.06-.07-.13,0-.2.03-.08.03-.17.05-.25.07.05-.07.1-.13.16-.21.06-.09.11-.17.03-.25-.08-.09-.16-.03-.24,0-.17.05-.33.11-.5.16-.6.2-1.14.49-1.56.95-.16.17-.3.37-.37.59-.13.38-.11.78-.02,1.17.1.39.22.78.32,1.17.14.51.18,1.02.01,1.53-.12.38-.36.67-.75.83-.08.03-.09.08-.09.15,0,.34.04.68.13,1.01.1.37.22.74.3,1.12.06.28.1.57.13.86.02.22.01.45.03.68,0,.04.06.08.08.12.11.1.23.21.34.31.03.03.06.06.09.11.02.05.03.08.04.12.05.14,0,.26-.13.32-.1.04-.1.1-.08.18.1.49.28.94.55,1.37.38.6.42,1.28.46,1.95.03.51-.1,1.02-.02,1.52.05.29.13.57.21.86,0,.03.06.06.09.09.03.06.08.06.15.06.29,0,.55.09.77.28.14.29.07.54-.07.79-.09.16-.18.33-.27.49-.07.13-.09.26-.03.4.13.29.25.59.36.88.1.27.13.55.06.84-.05.19-.16.25-.35.17-.05-.02-.1-.02-.15-.04-.07-.06-.14-.12-.21-.19-.04-.04-.07-.07-.1-.11,0,0,0,0,0,0-.03-.03-.05-.06-.08-.08,0,0,0,0,0-.01-.03-.04-.05-.06-.08-.09,0,0,0,0,0,0-.03-.04-.06-.07-.09-.1,0,0,0,0,0,0-.03-.03-.05-.06-.08-.08,0,0,0,0,0-.01,0-.02,0-.03,0-.04-.1-.16-.16-.34-.17-.53,0-.07-.03-.15-.14-.16,0,0-.01,0-.02-.02-.03-.04-.07-.07-.1-.1-.01,0-.03-.02-.04-.04-.05-.1-.12-.19-.15-.28-.06-.22-.12-.44-.15-.66-.09-.53-.2-1.06-.37-1.57-.26-.78-.49-1.56-.64-2.37-.09-.46-.21-.92-.33-1.37-.01-.06-.01-.14-.11-.14,0,0,0,0,0-.01-.02-.06-.04-.1-.07-.14-.28-.39-.52-.8-.69-1.25-.13-.35-.26-.69-.39-1.03-.02-.05-.08-.09-.12-.13-.01,0-.03-.02-.04-.04-.02-.04-.03-.08-.05-.09-.14-.08-.28-.16-.42-.24-.02-.01-.06,0-.1,0,0,0,0,0,0-.01-.03-.15-.09-.26-.24-.31-.12-.04-.25-.1-.37-.15-.18-.08-.38-.1-.52-.25,0,0-.02,0-.03,0,0,0,0,0,0-.01-.06-.06-.11-.13-.17-.16-.26-.13-.54-.25-.8-.38-.26-.12-.51-.26-.77-.36-.64-.25-1.28-.52-1.86-.87-.03-.02-.08-.01-.11-.02,0,0,0,0,0-.01,0-.09-.05-.09-.11-.07,0,0,0,0,0-.01,0-.09-.05-.09-.11-.07,0,0,0,0,0-.01,0-.1-.07-.09-.13-.09,0,0-.01,0-.02-.02-.01-.1-.07-.11-.14-.1-.03-.02-.06-.05-.09-.08-.02-.05-.04-.09-.07-.11-.1-.07-.21-.14-.31-.21-.04-.02-.09-.03-.13-.04-.08-.07-.15-.13-.23-.21-.03-.04-.06-.06-.08-.09,0,0,0,0,0-.01-.01-.04-.02-.08-.04-.11-.19-.26-.26-.54-.23-.85,0-.07,0-.14,0-.21.08-.25.27-.41.5-.56.4-.25.86-.35,1.32-.44.24-.05.48-.11.73-.16.3-.06.6-.11.9-.16.29-.05.58-.09.86-.13.14-.02.28-.02.42-.04.32-.04.64-.09.95-.13.03,0,.06,0,.1-.02.04-.06.08-.1.08-.14,0-.11-.04-.21-.03-.32.02-.21.07-.41.11-.62.02-.11.05-.22.07-.33,0-.02.01-.03.03-.06.07-.22.14-.43.2-.64.04-.17.05-.34.08-.51.06-.36.13-.72.19-1.09,0-.02-.01-.03-.02-.05,0-.02.01-.03.03-.06,0-.02.01-.04.01-.05.14-.24.28-.49.44-.73.07-.1.16-.19.25-.3.04-.12.07-.24.09-.35,0-.02.01-.03.03-.06,0-.02.01-.04.01-.05.1-.16.18-.33.3-.48.27-.35.65-.55,1.06-.71,0,0,.02-.01.03-.03.03-.1.05-.18.07-.27,0-.02.01-.03.03-.06.02-.04.03-.08.03-.11,0-.02.01-.03.03-.06.02-.04.02-.08.03-.11,0-.02.01-.03.03-.06.02-.04.02-.08.03-.11,0-.02.01-.03.03-.06.03-.04.05-.06.06-.09.1-.37.2-.74.29-1.11.03-.13.04-.27.06-.41.06-.05.12-.09.19-.15.02-.09.04-.17.05-.24.01-.03.03-.06.05-.1,0-.02.01-.04.01-.05.11-.21.22-.41.33-.63,0-.02.01-.04.01-.05.02-.05.04-.09.07-.15,0-.02.01-.04.01-.05,0-.02.01-.03.03-.06.03-.05.05-.08.06-.12.07-.25.14-.51.21-.76.02-.06.02-.13.03-.2,0-.02.01-.03.03-.06,0-.02.01-.04.01-.05.01-.03.03-.06.05-.1,0-.02.01-.04.01-.05.02-.05.04-.09.07-.15.01-.02.01-.04.01-.05.03-.06.06-.12.09-.19.01-.02.01-.04.01-.05.01-.03.03-.06.05-.1.06-.18.11-.34.15-.51,0-.01-.04-.04-.06-.06,0,0,0,0,0,0,0-.09-.07-.1-.14-.1-.04-.04-.09-.07-.14-.13-.06-.1-.12-.19-.17-.28,0,0,0,0,0,0,0-.08-.06-.11-.13-.12-.12-.01-.24-.03-.36-.03-.06,0-.11-.02-.11-.08.1-.01.21-.02.31-.05-.03-.06-.06-.11-.11-.13-.08-.03-.17-.04-.25-.06-.05-.01-.11,0-.1-.08.05-.02.1-.03.15-.05,0,0,0-.03,0-.06,0-.11-.09-.12-.16-.12-.13,0-.18-.05-.17-.17.23.03.47.06.74.09-.06-.04-.1-.07-.15-.11-.02-.05-.04-.09-.07-.11-.11-.08-.22-.15-.33-.23.07-.1.17-.03.23-.01.26.08.48.22.65.42.13.15.29.27.43.41.03.03.06.07.1.12.01.04.01.06.02.08.08.15.16.29.25.44.12.21.15.43.11.66-.09.55-.18,1.1-.26,1.65-.05.32-.12.64-.26.95-.13.29-.26.58-.38.87-.02.04,0,.09,0,.14,0,.06.02.14,0,.19-.11.19-.18.39-.21.6-.03.24-.05.49.03.73.06.18.11.36.17.53.01.04.06.07.09.11.08.03.15.06.23.08.17.05.28-.05.4-.12.12-.07.49-.14.6-.22.05-.03-.17-.08-.12-.13.02-.07.04-.12.05-.18,0-.02.01-.03.03-.06,0-.02.01-.04.01-.05.12-.32.36-.52.69-.59.27-.06.5-.18.74-.29.33-.15.65-.17.98.01.11.06.23.09.36.09.44,0,.8.17,1.04.53.05.08.07.18.1.26.02.05.04.1.07.13.23.25.33.53.28.86-.02.14-.04.28-.04.41,0,.06.05.12.1.17.1.1.21.18.24.32.01.06.01.11,0,.18-.07-.14-.15-.25-.32-.28-.03.27.06.5.23.71.03.04.06.1.06.15,0,.07.04.09.1.11.36.12.73.21,1.1.24.24.02.49-.01.73-.01.46,0,.92.05,1.37.12.27.04.54.06.81.08.39.02.79.01,1.19.04.27.02.53.1.78.21.49.2.97.4,1.46.58.36.13.64.36.92.6.04.03.06.07.1.12,0,.06,0,.11,0,.16-.05,0-.1-.02-.15-.03Z"/>
  <path class="cls-5" d="M206.85,151.45c-1.38,4.56-6.1,7.87-10.86,7.61s-9.09-4.07-9.96-8.75c-.52-2.8.1-5.72,1.23-8.34,2.97-6.87,9.61-12.03,17.01-13.19,1.64-.26,3.41-.3,4.84.54,1.66.98,2.48,3.01,2.52,4.93s-.55,3.81-1.15,5.64c2.91.07,5.83.2,8.74.27,1.21-4.41,2.41-8.81,3.62-13.22.32-1.17.6-2.57-.19-3.49-.72-.84-1.98-.88-3.09-.85-13.96.35-27.92.69-41.87,1.04-2,.05-4.5.46-5.05,2.38-.24.84,0,1.73.22,2.57,2.64,9.53,5.28,19.06,7.91,28.6,1.28,4.61,2.75,9.53,6.46,12.54,4.91,3.99,12.53,3.19,17.63-.55s8.04-9.79,9.72-15.89c.2-.74.39-1.56.05-2.25-.67-1.36-2.7-1.13-4.06-.45s-2.32,1.45-3.72.86Z"/>
  <g>
    <path class="cls-5" d="M229.73,171.71c.17.05.33.11.5.16-4.46.21-8.87.51-13.32.72,2.81-12.5,5.62-25.01,8.44-37.51.92-4.09,1.85-8.25,1.63-12.44,4.9-.18,9.61-.46,14.51-.64-3.69,16.69-8.06,33.03-11.76,49.72Z"/>
    <g>
      <g>
        <path class="cls-5" d="M255.1,130.73c.26.34.02.85-.43.91s-.92-.36-.84-.75.68-.57,1.07-.34"/>
        <path class="cls-3" d="M255.13,131.07c.15-.02.3-.03.45-.04"/>
      </g>
      <g>
        <path class="cls-5" d="M255.36,128.34c.26.34.02.85-.43.91s-.92-.36-.84-.75.68-.57,1.07-.34"/>
        <path class="cls-3" d="M255.21,128.78l.66-.04"/>
        <g>
          <path class="cls-5" d="M263.79,130.83c.06.4-.37.76-.77.64s-.6-.68-.36-.99.83-.25,1.04.11"/>
          <path class="cls-5" d="M265.48,129.64c.06.4-.37.76-.77.64s-.6-.68-.36-.99.83-.25,1.04.11"/>
          <path class="cls-3" d="M264,128.89c.12.17.28.31.46.41"/>
          <path class="cls-3" d="M262.37,130.22c.19.21.41.4.65.56"/>
        </g>
      </g>
    </g>
    <path class="cls-5" d="M233.96,149.51c7.06-1.33,14.29-1.74,21.45-1.22.52-2.43,1.04-4.85,1.56-7.28-.27-.02-.57-.17-.82-.06-5.2,2.25-10.91,3.24-16.53,2.87-1.25-.08-2.68-.35-3.31-1.47-1.69,1.99-2.39,4.52-2.34,7.16Z"/>
  </g>
  <g>
    <path class="cls-5" d="M278.65,174.53c6.7-.03,13.85-.71,20.55-.74.36,0,.77-.03.98-.35.17-.25.15-.59.13-.9-.2-2.74-.4-5.48-.59-8.22-.03-.41-.09-.87-.39-1.09-.22-.16-.5-.14-.76-.12-5.73.5-10.06,1.33-18.19,1.08"/>
    <g>
      <path class="cls-5" d="M285.55,128.55s.74-3.37.49-2.17c-.09.45.34-1.81.46-2.93.03-.26-.95-.84-1.2-.92-.74-.24-1.36-.64-1.72-.72-.91-.2-1.97-.24-3.45,0-.89.14-2.22.72-2.22.72l-.49,1.69s-.25,1.69-.75,2.91c-.92.12-1.99.55-2.21,1.44-3.59,14.74-7.8,31.34-11.82,45.97h16.01c2.55-14.09,5.64-28.97,8.19-43.06.08-.43.16-.79.19-1.24.05-.91-1.48-1.69-1.48-1.69ZM283.19,129.15c.22-.25.39-.22.74-.29.22-.05.51.01.54.23.01.08-.02.15-.05.22-.3.76-.6,1.52-.9,2.29-.08.2-.16.41-.32.56-.25.24-.67.27-.96.08-.19-.13.43-1.83.51-2.06.11-.3.22-.78.44-1.03ZM280.98,133.64c-.3.76-.6,1.52-.9,2.29-.08.2-.16.41-.32.56-.25.24-.67.27-.96.08-.19-.13.43-1.83.51-2.06.11-.3.22-.78.44-1.03.22-.25.39-.22.74-.29.22-.05.51.01.54.23.01.08-.02.15-.05.22ZM281.03,134.75c.11-.3.22-.78.44-1.03.22-.25.39-.22.74-.29.22-.05.51.01.54.23.01.08-.02.15-.05.22-.3.76-.6,1.52-.9,2.29-.08.2-.16.41-.32.56-.25.24-.67.27-.96.08-.19-.13.43-1.83.51-2.06ZM279.25,133.39c-.3.76-.6,1.52-.9,2.29-.08.2-.16.41-.32.56-.25.24-.67.27-.96.08-.19-.13.43-1.83.51-2.06.11-.3.22-.78.44-1.03.22-.25.39-.22.74-.29.22-.05.51.01.54.23.01.08-.02.15-.05.22ZM277.28,133.38c-.3.76-.6,1.52-.9,2.29-.08.2-.16.41-.32.56-.25.24-.67.27-.96.08-.19-.13.43-1.83.51-2.06.11-.3.22-.78.44-1.03.22-.25.39-.22.74-.29.22-.05.51.01.54.23.01.08-.02.15-.05.22ZM275.56,137.5c.22-.05.51.01.54.23.01.08-.02.15-.05.22-.3.76-.6,1.52-.9,2.29-.08.2-.16.41-.32.56-.25.24-.67.27-.96.08-.19-.13.43-1.83.51-2.06.11-.3.22-.78.44-1.03.22-.25.39-.22.74-.29ZM276.35,138.83c.11-.3.22-.78.44-1.03.22-.25.39-.22.74-.29.22-.05.51.01.54.23.01.08-.02.15-.05.22-.3.76-.6,1.52-.9,2.29-.08.2-.16.41-.32.56-.25.24-.67.27-.96.08-.19-.13.43-1.83.51-2.06ZM278.08,139.08c.11-.3.22-.78.44-1.03.22-.25.39-.22.74-.29.22-.05.51.01.54.23.01.08-.02.15-.05.22-.3.76-.6,1.52-.9,2.29-.08.2-.16.41-.32.56-.25.24-.67.27-.96.08-.19-.13.43-1.83.51-2.06ZM279.8,139.33c.11-.3.22-.78.44-1.03.22-.25.39-.22.74-.29.22-.05.51.01.54.23.01.08-.02.15-.05.22-.3.76-.6,1.52-.9,2.29-.08.2-.16.41-.32.56-.25.24-.67.27-.96.08-.19-.13.43-1.83.51-2.06ZM281.28,139.82c.11-.3.22-.78.44-1.03.22-.25.39-.22.74-.29.22-.05.51.01.54.23.01.08-.02.15-.05.22-.3.76-.6,1.52-.9,2.29-.08.2-.16.41-.32.56-.25.24-.67.27-.96.08-.19-.13.43-1.83.51-2.06ZM282.95,137.22c-.25.24-.67.27-.96.08-.19-.13.43-1.83.51-2.06.11-.3.22-.78.44-1.03.22-.25.39-.22.74-.29.22-.05.51.01.54.23.01.08-.02.15-.05.22-.3.76-.6,1.52-.9,2.29-.08.2-.16.41-.32.56ZM281.47,128.9c.22-.25.39-.22.74-.29.22-.05.51.01.54.23.01.08-.02.15-.05.22-.3.76-.6,1.52-.9,2.29-.08.2-.16.41-.32.56-.25.24-.67.27-.96.08-.19-.13.43-1.83.51-2.06.11-.3.22-.78.44-1.03ZM279.75,128.65c.22-.25.39-.22.74-.29.22-.05.51.01.54.23.01.08-.02.15-.05.22-.3.76-.6,1.52-.9,2.29-.08.2-.16.41-.32.56-.25.24-.67.27-.96.08-.19-.13.43-1.83.51-2.06.11-.3.22-.78.44-1.03ZM277.78,128.64c.22-.25.39-.22.74-.29.22-.05.51.01.54.23.01.08-.02.15-.05.22-.3.76-.6,1.52-.9,2.29-.08.2-.16.41-.32.56-.25.24-.67.27-.96.08-.19-.13.43-1.83.51-2.06.11-.3.22-.78.44-1.03ZM275.62,129.66c.11-.3.22-.78.44-1.03.22-.25.39-.22.74-.29.22-.05.51.01.54.23.01.08-.02.15-.05.22-.3.76-.6,1.52-.9,2.29-.08.2-.16.41-.32.56-.25.24-.67.27-.96.08-.19-.13.43-1.83.51-2.06ZM273.89,134.23c.11-.3.22-.78.44-1.03.22-.25.39-.22.74-.29.22-.05.51.01.54.23.01.08-.02.15-.05.22-.3.76-.6,1.52-.9,2.29-.08.2-.16.41-.32.56-.25.24-.67.27-.96.08-.19-.13.43-1.83.51-2.06ZM272.66,138.81c.11-.3.22-.78.44-1.03.22-.25.39-.22.74-.29.22-.05.51.01.54.23.01.08-.02.15-.05.22-.3.76-.6,1.52-.9,2.29-.08.2-.16.41-.32.56-.25.24-.67.27-.96.08-.19-.13.43-1.83.51-2.06ZM271.63,145.36c-.25.24-.67.27-.96.08-.19-.13.43-1.83.51-2.06.11-.3.22-.78.44-1.03.22-.25.39-.22.74-.29.22-.05.51.01.54.23.01.08-.02.15-.05.22-.3.76-.6,1.52-.9,2.29-.08.2-.16.41-.32.56ZM273.35,145.37c-.25.24-.67.27-.96.08-.19-.13.43-1.83.51-2.06.11-.3.22-.78.44-1.03.22-.25.39-.22.74-.29.22-.05.51.01.54.23.01.08-.02.15-.05.22-.3.76-.6,1.52-.9,2.29-.08.2-.16.41-.32.56ZM275.32,145.38c-.25.24-.67.27-.96.08-.19-.13.43-1.83.51-2.06.11-.3.22-.78.44-1.03.22-.25.39-.22.74-.29.22-.05.51.01.54.23.01.08-.02.15-.05.22-.3.76-.6,1.52-.9,2.29-.08.2-.16.41-.32.56ZM277.05,145.63c-.25.24-.67.27-.96.08-.19-.13.43-1.83.51-2.06.11-.3.22-.78.44-1.03.22-.25.39-.22.74-.29.22-.05.51.01.54.23.01.08-.02.15-.05.22-.3.76-.6,1.52-.9,2.29-.08.2-.16.41-.32.56ZM279.09,145.32c-.08.2-.16.41-.32.56-.25.24-.67.27-.96.08-.19-.13.43-1.83.51-2.06.11-.3.22-.78.44-1.03.22-.25.39-.22.74-.29.22-.05.51.01.54.23.01.08-.02.15-.05.22-.3.76-.6,1.52-.9,2.29ZM280.24,146.36c-.25.24-.67.27-.96.08-.19-.13.43-1.83.51-2.06.11-.3.22-.78.44-1.03.22-.25.39-.22.74-.29.22-.05.51.01.54.23.01.08-.02.15-.05.22-.3.76-.6,1.52-.9,2.29-.08.2-.16.41-.32.56ZM283.19,144c-.3.76-.6,1.52-.9,2.29-.08.2-.16.41-.32.56-.25.24-.67.27-.96.08-.19-.13.43-1.83.51-2.06.11-.3.22-.78.44-1.03.22-.25.39-.22.74-.29.22-.05.51.01.54.23.01.08-.02.15-.05.22ZM284.67,139.43c-.3.76-.6,1.52-.9,2.29-.08.2-.16.41-.32.56-.25.24-.67.27-.96.08-.19-.13.43-1.83.51-2.06.11-.3.22-.78.44-1.03.22-.25.39-.22.74-.29.22-.05.51.01.54.23.01.08-.02.15-.05.22ZM285.9,135.1c-.3.76-.6,1.52-.9,2.29-.08.2-.16.41-.32.56-.25.24-.67.27-.96.08-.19-.13.43-1.83.51-2.06.11-.3.22-.78.44-1.03.22-.25.39-.22.74-.29.22-.05.51.01.54.23.01.08-.02.15-.05.22ZM285.9,129.8c-.3.76-.6,1.52-.9,2.29-.08.2-.16.41-.32.56-.25.24-.67.27-.96.08-.19-.13.43-1.83.51-2.06.11-.3.22-.78.44-1.03.22-.25.39-.22.74-.29.22-.05.51.01.54.23.01.08-.02.15-.05.22ZM280.23,123.3c-.3.76-.6,1.52-.9,2.29-.08.2-.16.41-.32.56-.25.24-.67.27-.96.08-.19-.13.43-1.83.51-2.06.11-.3.22-.78.44-1.03.22-.25.39-.22.74-.29.22-.05.51.01.54.23.01.08-.02.15-.05.22ZM281.96,123.3c-.3.76-.6,1.52-.9,2.29-.08.2-.16.41-.32.56-.25.24-.67.27-.96.08-.19-.13.43-1.83.51-2.06.11-.3.22-.78.44-1.03.22-.25.39-.22.74-.29.22-.05.51.01.54.23.01.08-.02.15-.05.22ZM283.68,123.3c-.3.76-.6,1.52-.9,2.29-.08.2-.16.41-.32.56-.25.24-.67.27-.96.08-.19-.13.43-1.83.51-2.06.11-.3.22-.78.44-1.03.22-.25.39-.22.74-.29.22-.05.51.01.54.23.01.08-.02.15-.05.22ZM285.41,123.3c-.3.76-.6,1.52-.9,2.29-.08.2-.16.41-.32.56-.25.24-.67.27-.96.08-.19-.13.43-1.83.51-2.06.11-.3.22-.78.44-1.03.22-.25.39-.22.74-.29.22-.05.51.01.54.23.01.08-.02.15-.05.22Z"/>
      <path class="cls-5" d="M281.6,155.56c3.93-.46,9.11-.86,13.28-1.31.74-.08,1.32-.65,1.42-1.39.34-2.74.42-5.51.24-8.26-.02-.28-.06-.6-.29-.75-.18-.12-.41-.1-.62-.08-4.41.47-8.7,2.01-12.42,4.43"/>
      <path class="cls-5" d="M287.02,130.18c4.19,0,11.58-2.46,13.79-2.46.36,0,1.81-.1,1.72.25-.52,2.09-.74,2.96-.99,3.94-.07.29-.69,3.17-.99,3.2-4.68.49-9.61.74-15.03,1.48"/>
    </g>
  </g>
  <g>
    <path class="cls-5" d="M120.27,146.52c0,.75.61,1.37,1.37,1.37s1.37-.61,1.37-1.37-.61-1.37-1.37-1.37-1.37.61-1.37,1.37Z"/>
    <path class="cls-5" d="M118.36,143.17s-.02.07,0,.09c.16.2.41.48.63.56.06.02.53.04.69.05.17,0,.32-.16.34-.33.03-.2.01-.42.01-.62,0-.18-.16-.37-.34-.37-.24,0-.53,0-.66.04-.22.07-.49.37-.67.58Z"/>
    <path class="cls-5" d="M119.78,141.19c.18.04.31-.04.35-.18.01-.04-.04-.79-.26-.84-.1-.02-.31,0-.35.18-.04.15.11.8.26.84Z"/>
    <path class="cls-5" d="M117.07,154.23c-.17.14-.4.18-.62.17-.22-.01-.43-.06-.64-.13.32-.66.61-1.34.88-2.03-.05-.19-.1-.38-.15-.57-.14.4-.27.79-.4,1.19-.15.48-.36.93-.69,1.3-.51.04-.98-.3-1.24-.74-.26-.44-.34-.96-.39-1.46-.1-1.01-.12-2.02-.05-3.03.19-2.84,1.05-5.6,2.06-8.27.07-.17.13-.35.25-.49.12-.14.3-.24.49-.21-.08-.13-.02-.36.07-.48s.22-.2.36-.27c.82-.42,1.79-.53,2.68-.3-.01.14,0,.3-.01.44.14-.09.37-.04.5.07.13.11.2.27.24.43.05.16.07.33.13.48.33.85.38,1.8.57,2.69.05.24-.02.53-.13.75s-.28.41-.45.59c-.33.37-.66.74-.99,1.11-.95,1.07-1.5,2.46-2.06,3.78,0,.02-.01.03-.02.05.05.08.09.16.14.25.35-.9.83-1.76,1.32-2.59.45-.75,1.09-1.5,1.64-2.19.33-.42.68-.86.77-1.39.12.32.42.55.74.66s.69.18,1.02.18h1.01c1.67,0,2.55-.02,3.78-.02.31,0,.63,0,.92-.1-.02-.08-.05-.17-.08-.25-.28.1-.59.1-.89.1-1.81-.02-3.33-.07-5.14-.07-.42,0-1.06-.41-1.25-.79-.19-.38-.26-.81-.32-1.23-.1-.73-.26-1.46-.47-2.16-.05-.16-.12-.35-.28-.41,2.26-.24,4.55-.32,6.82-.26-2.01-5.95-4.28-11.83-5.83-17.92-1.61-.1-3.23.08-4.85.07-7.29-.07-14.54-.09-21.83-.16,0,.23.02.4,0,.63,1.23.15,2.27,1.06,2.88,2.14.61,1.08.87,2.31,1.13,3.53,3.65,17.48,7.29,34.96,10.94,52.43,3.98-2.65,7.82-5.43,11.41-8.59-1.11-5.71-2.42-11.39-3.87-17.03-.03.04-.06.07-.1.1Z"/>
    <path class="cls-5" d="M130.42,143.58c.12.25.37.42.66.42.4,0,.73-.33.73-.73s-.33-.73-.73-.73c-.29,0-.53.17-.65.41,0,.21,0,.41,0,.62Z"/>
    <path class="cls-5" d="M127.84,146.52c0,.75.61,1.37,1.37,1.37.21,0,.41-.05.59-.14-.22-.87-.45-1.73-.69-2.59-.71.05-1.26.64-1.26,1.36Z"/>
    <path class="cls-5" d="M130.91,141.16c.15-.04.3-.68.26-.84-.04-.18-.26-.2-.35-.18-.22.04-.28.79-.26.84.04.13.18.22.35.18Z"/>
    <path class="cls-5" d="M130.41,145.86c0,.44,0,.88,0,1.32.11-.2.18-.43.18-.67s-.06-.46-.17-.66Z"/>
    <circle class="cls-5" cx="132.84" cy="145.04" r=".73"/>
    <circle class="cls-5" cx="132.84" cy="141.52" r=".73"/>
    <circle class="cls-5" cx="134.6" cy="143.28" r=".73"/>
    <path class="cls-5" d="M116.44,142.55c-.18,0-.34.19-.34.37,0,.21-.01.42.01.62.02.17.17.34.34.33.16,0,.63-.03.69-.05.22-.09.47-.36.63-.56.02-.03.02-.07,0-.09-.18-.21-.45-.5-.67-.58-.13-.04-.43-.05-.66-.04Z"/>
    <path class="cls-5" d="M118.39,141.27c-.21,0-.42-.02-.62,0-.17.02-.34.17-.34.34,0,.16.01.63.04.69.08.22.55.65.6.65.01,0,.04.04.09,0,0,0,.45-.35.53-.57.05-.13.08-.52.08-.76,0-.18-.19-.34-.37-.35Z"/>
    <path class="cls-5" d="M141.98,124.75c-3.78.26-7.62.44-11.4.7-.01,4.59-.06,9.18-.11,13.78,0,0,.01,0,.02,0,0,.01-.01.02-.02.04,0,.15,0,.3,0,.45.05-.13.11-.25.21-.33.13-.11.36-.16.5-.07-.01-.14,0-.3-.01-.44.89-.24,1.86-.12,2.68.3.13.07.27.15.36.27s.15.36.07.48c.18-.03.37.07.49.21.12.14.19.32.25.49,1,2.67,1.87,5.42,2.06,8.27.07,1.01.05,2.02-.05,3.03-.05.51-.13,1.02-.39,1.46-.26.44-.74.78-1.24.74-.33-.38-.55-.83-.69-1.3-.37-1.22-.83-2.42-1.33-3.59-.56-1.32-1.11-2.71-2.06-3.78-.3-.33-.59-.66-.89-1,0,.12,0,.24,0,.36.01.01.03.02.04.03.44.36.75.89,1.03,1.39.28.5.61,1.02.89,1.53.22.39.41.83.62,1.22.06.1.13.24.18.35.4.84.66,1.75.93,2.64.11.38.28.76.4,1.13.14.42.29.86.6,1.16-.27.03-.55.08-.82.14-.17.04-.37-.05-.51-.16-.14-.12-.24-.27-.33-.42-.16-.28-.3-.57-.41-.88-.31-.87-.61-1.76-.99-2.6-.1-.22-.2-.45-.34-.65-.17-.24-.36-.47-.59-.65-.21-.15-.46-.26-.72-.25,0,.48,0,.96,0,1.45-.1-.46-.21-.93-.31-1.39-.06.02-.13.04-.19.06-.3.09-.62.12-.93.09-.08,0-.24,0-.32,0-1.79.02-3.68.04-5.48.05-.68,0-1.39-.02-2.07-.13-.22-.04-.45-.08-.68-.07-.5.03-.95.34-1.26.74-.31.4-.49.87-.67,1.34-.02.05-.04.1-.05.15,3.36,6.38,5.87,13.26,10.44,18.86,4.72.07,9.47.25,14.19.32.45-15.18-.27-30.35-1.07-45.51Z"/>
    <path class="cls-5" d="M118.11,143.52s-.08,0-.09,0c-.04,0-.51.43-.6.65-.02.06-.03.53-.04.69,0,.17.17.32.34.34.2.02.42,0,.62,0,.18,0,.37-.17.37-.35,0-.24-.03-.63-.08-.76-.08-.22-.53-.57-.53-.57Z"/>
  </g>
  <text class="cls-4" transform="translate(41.12 118.14)"><tspan x="0" y="0">S</tspan><tspan class="cls-9" x="4.81" y="0">R</tspan><tspan x="10.83" y="0">G</tspan><tspan class="cls-14" x="17.77" y="0">I</tspan><tspan x="20.99" y="0">’S</tspan></text>
  <text class="cls-4" transform="translate(204.56 119.99)"><tspan class="cls-8" x="0" y="0">1</tspan><tspan x="5.03" y="0">3TH ED</tspan></text>
  <path class="cls-2" d="M31.2,170.12c4.83,7.38,13.35,17.69,24.98,18.57,8.84.67,14.09-4.52,33.61-18.57,20.02-14.41,8.93-4.94,42.48-28.31,24.33-16.94,29.75-21.63,38.75-20.38,11.37,1.58,20.53,11.55,22.88,14.27,8.16,9.49,6.08,15.44,12.14,18.57,9.88,5.1,25.75-5.37,35.48-11.78,4.23-2.79,19.37-13.21,35.01-22.87,2.08-1.29,5.75-3.48,9.57-2.49,7.64,1.98,9.7,15.1,10.04,17.44"/>
  <path class="cls-5" d="M257.35,142.21c.36-2.62.72-5.26,1.7-7.73,1.11-2.8,8.62-7.72,9-10.7-2.19-.87-10.42,1.66-12.29,2.78-.38,8.15-1.47,16.19-3.2,24.13-.23,1.06-.57,1.87-.84,2.15-.81.87-2.76.2-3.93.69-1.01.42-1.56,1.38-1.71,2.35-.16.97.01,1.97.09,2.97.08.99.06,2.02-.44,2.88-.84,1.45-2.4,2.58-3.32,3.99-1.3,2-.77,4.82,1.22,6.56,2.82,2.47,7.4,3.36,11.28,3.27,1.59-.03,3.19-.27,4.57-.88s2.54-1.61,3.04-2.88c.34-.88.19-1.86.17-2.81-.03-1.5-1.6-2.75-2.04-4.23-.74-2.45,1.74-4.67,1.46-7.16-.22-1.92-2.38-3.89-4.62-4-1.4-1.01-1.33-2.81-1.13-4.3.32-2.36.65-4.73.97-7.09Z"/>
  <text class="cls-6" transform="translate(199.25 182.99)"><tspan x="0" y="0">E</tspan><tspan class="cls-10" x="5.03" y="0">m</tspan><tspan x="13.37" y="0">p</tspan><tspan class="cls-11" x="19.62" y="0">o</tspan><tspan class="cls-13" x="25.06" y="0">w</tspan><tspan x="32.75" y="0">er Inspire Rise</tspan></text>
  <text class="cls-7" transform="translate(27.53 167.13)"><tspan x="0" y="0">@a</tspan><tspan class="cls-12" x="1.09" y="0">r</tspan><tspan x="1.43" y="0">qam365</tspan></text>
</svg>